# xmcd
#
# Track frame offsets:
#  150
#  14160
#  25990
#  37748
#  50011
#  60226
#  76609
#  89457
#  100190
#  111496
#  121443
#  133605
#  146730
#  157253
#  170223
#  183525
#  194805
#  209624
#  218162
#  233229
#
# Disc length: 3318 seconds
#
# Revision: 0
# Processed by: cddbd v1.5.1PL2 Copyright (c) Steve Scherf et al.
# Submitted via: Collectorz.com_Music_Collector 6.10
#
DISCID=2f0cf414
DTITLE=Various Artist - QUEENS OF COUNTRY
DYEAR=1993
DGENRE=Compilation - Country - Easy Listening
TTITLE0=Lacy J Dalton - TENNESSE WALTZ
TTITLE1=Patsy Cline - WALKIN AFTER MIDNIGHT
TTITLE2=Donna Fargo - THE HAPPIEST GIRL IN THE WHOLE USA
TTITLE3=Lynn Anderson - STAND BY YOUR MAN
TTITLE4=Dolly Parton - RELEASE ME 
TTITLE5=JANIE FRICKE - ALWAYS HAVE ALWAYS WILL
TTITLE6=JANIE FRICKIE - DO ME WITH LOVE
TTITLE7=SANDY POSIE - A SINGLE GIRL
TTITLE8=Sandy Posey - I TAKE IT BACK
TTITLE9=Kitty Wells - I CANT STOP LOVING YOU
TTITLE10=BARBARBRA MANRELL - MAMA DONT ALLOW NO COUNTRY MUSIC HERE
TTITLE11=JANIE FRICKE - SHES SINGLE AGAIN
TTITLE12=Patsy Cline - HONKEY TONK MERRY GO ROUND
TTITLE13=Kitty Wells - TALK BACKTREMBLING LIPS
TTITLE14=BILLIE JO SPEARS - FEVER 
TTITLE15=Patsy Cline - JUST OUT OF REACH
TTITLE16=JEANNIE PRUET - SATIN SHEETS
TTITLE17=Sandy Posey - BORN A WOMAN
TTITLE18=Lynn Anderson - COULD I HAVE THIS DANCE
TTITLE19=Lynn Anderson - YOU NEEDED ME
EXTD=
EXTT0=
EXTT1=
EXTT2=
EXTT3=
EXTT4=
EXTT5=
EXTT6=
EXTT7=
EXTT8=
EXTT9=
EXTT10=
EXTT11=
EXTT12=
EXTT13=
EXTT14=
EXTT15=
EXTT16=
EXTT17=
EXTT18=
EXTT19=
PLAYORDER=
